# xmcd CD database file
#
# Track frame offsets:
#	150
#	13435
#	28217
#	48930
#	67711
#	87140
#	102347
#	117997
#	132443
#	152089
#	167952
#	180026
#	196089
#	206696
#	221548
#	239330
#	252633
#	263250
#	278662
#	300733
#	315052
#
# Disc length: 4342 seconds
#
# Revision: 1
# Processed by: cddbd v1.5.2PL0 Copyright (c) Steve Scherf et al.
# Submitted via: CDex 1.51
#
DISCID=1810f415
DTITLE=Clermont Mattais - Le Grand Voyage and Laisse Parler Ton Coeur
DYEAR=1900
DGENRE=Country
TTITLE0=Les Craintes De Ma Vie
TTITLE1=Ne Reste Pas Là
TTITLE2=Malgré-Moi
TTITLE3=Les Premiers Pas
TTITLE4=Les Richesse De L'été
TTITLE5=Le Marché Aux Puces
TTITLE6=Ce Soir Je Vais Danser
TTITLE7=Partage Tes Chagrins
TTITLE8=Ce Jour Viendra
TTITLE9=Le Grand Voyage
TTITLE10=Les Yeux De Ton Coeur
TTITLE11=Veillir Ensemble
TTITLE12=Je N'est Jamais Aimé Me Faire Bosser
TTITLE13=Que Veuc-Tu Que Je Te Donne
TTITLE14=La Valse Des Mariés
TTITLE15=Moi Je Chante
TTITLE16=Soirs De Rêves
TTITLE17=Rebâtir Notre Vie
TTITLE18=Laisse Parler Ton Coeur
TTITLE19=Grand Maman
TTITLE20=Première Rencontre
EXTD=
EXTT0=
EXTT1=
EXTT2=
EXTT3=
EXTT4=
EXTT5=
EXTT6=
EXTT7=
EXTT8=
EXTT9=
EXTT10=
EXTT11=
EXTT12=
EXTT13=
EXTT14=
EXTT15=
EXTT16=
EXTT17=
EXTT18=
EXTT19=
EXTT20=
PLAYORDER=
